<?xml version="1.0" encoding="UTF-8" standalone="no"?>
<svg xmlns="http://www.w3.org/2000/svg" width="2228.9365" height="2215.3135" version="1.0">
  <path fill="#fffc24" stroke="#000" stroke-width="41.64839172" d="M2167.7587 981.46552a907.5 901.81036 0 1 1-1815.00003 0 907.5 901.81036 0 1 1 1815.00003 0z" transform="matrix(1.20052 0 0 1.20054 -398.4924 -70.62891)"/>
  <path d="M861.45980228 761.63549777a232.63578774 292.31076031 0 1 1-465.27157548 0 232.63578774 292.31076031 0 1 1 465.27157548 0z"/>
  <path fill-rule="evenodd" d="M326.79989 1636.6732s422.8463-73.4783 811.04261-75.2654c388.1962-1.787 741.7425 68.1174 741.7425 68.1174s-364.6694-212.9016-752.8656-211.1146c-388.19636 1.7871-799.91951 218.2626-799.91951 218.2626z"/>
  <path d="M1872.23890228 761.63582777a232.63578774 292.31076031 0 1 1-465.27157548 0 232.63578774 292.31076031 0 1 1 465.27157548 0z"/>
</svg>